<?xml version="1.0" standalone="no"?>
<!DOCTYPE svg PUBLIC "-//W3C//DTD SVG 20010904//EN"
 "http://www.w3.org/TR/2001/REC-SVG-20010904/DTD/svg10.dtd">
<svg version="1.0" xmlns="http://www.w3.org/2000/svg"
 width="239.000000pt" height="239.000000pt" viewBox="0 0 239.000000 239.000000"
 preserveAspectRatio="xMidYMid meet">
<metadata>
Created by potrace 1.14, written by Peter Selinger 2001-2017
</metadata>
<g transform="translate(0.000000,239.000000) scale(0.100000,-0.100000)"
fill="#000000" stroke="none">
<path d="M1581 2278 c-40 -11 -83 -68 -87 -117 -7 -94 94 -163 183 -126 62 26
91 82 79 150 -7 33 -56 94 -79 96 -6 0 -24 2 -38 3 -15 1 -41 -2 -58 -6z"/>
<path d="M675 2230 c-45 -10 -71 -27 -95 -60 -53 -74 -26 -175 55 -211 102
-45 205 18 205 126 0 53 -26 104 -62 123 -44 22 -73 29 -103 22z"/>
<path d="M1125 2152 c-111 -20 -175 -93 -175 -201 0 -46 43 -121 87 -150 55
-36 136 -39 193 -9 112 60 136 205 51 302 -32 36 -113 66 -156 58z"/>
<path d="M1471 1974 c-117 -50 -152 -198 -70 -297 81 -98 233 -90 306 16 24
34 28 51 28 106 0 69 -21 115 -69 151 -53 40 -136 50 -195 24z"/>
<path d="M693 1897 c-108 -52 -132 -202 -47 -290 87 -89 238 -66 295 44 37 73
14 183 -47 226 -66 46 -133 53 -201 20z"/>
<path d="M233 1808 c-45 -22 -37 -112 12 -124 39 -10 71 3 84 34 12 28 3 74
-16 85 -21 12 -60 14 -80 5z"/>
<path d="M1853 1792 c-13 -2 -32 -15 -44 -30 -55 -70 39 -157 107 -99 60 52
16 142 -63 129z"/>
<path d="M428 1752 c-64 -33 -76 -102 -26 -152 26 -27 37 -31 67 -27 55 7 67
15 86 56 15 34 15 41 2 73 -16 39 -24 46 -67 58 -20 6 -38 3 -62 -8z"/>
<path d="M1228 1756 c-28 -20 -33 -68 -11 -94 28 -35 69 -38 98 -6 30 33 31
53 4 88 -23 29 -62 34 -91 12z"/>
<path d="M1053 1740 c-52 -21 -35 -100 22 -100 55 0 78 48 40 86 -26 26 -30
27 -62 14z"/>
<path d="M1722 1617 c-46 -14 -85 -67 -85 -117 0 -72 62 -131 133 -125 50 4
78 23 101 67 24 47 24 75 -1 115 -34 57 -87 78 -148 60z"/>
<path d="M1050 1601 c-69 -21 -131 -74 -166 -141 -28 -54 -29 -166 -2 -220 63
-126 215 -186 338 -132 56 24 122 89 141 139 9 21 16 63 18 95 7 169 -168 308
-329 259z"/>
<path d="M1471 1579 c-47 -10 -66 -32 -66 -80 0 -75 80 -114 138 -69 73 57 19
169 -72 149z"/>
<path d="M479 1520 c-137 -37 -182 -197 -80 -289 81 -72 208 -53 260 40 43 76
12 191 -62 231 -32 17 -88 25 -118 18z"/>
<path d="M747 1504 c-15 -8 -27 -18 -28 -22 0 -4 -2 -15 -4 -24 -4 -22 23 -54
52 -63 28 -8 73 33 68 61 -2 11 -4 22 -4 26 -1 4 -13 14 -29 22 -24 12 -31 12
-55 0z"/>
<path d="M1525 1373 c-130 -45 -168 -202 -73 -300 29 -30 82 -56 118 -58 74
-2 152 44 180 108 65 146 -76 302 -225 250z"/>
<path d="M1824 1341 c-38 -23 -59 -76 -45 -112 5 -13 20 -35 34 -47 52 -49
148 -17 161 52 17 90 -73 155 -150 107z"/>
<path d="M734 1330 c-41 -16 -51 -74 -18 -107 44 -44 114 -16 114 46 0 28 -22
61 -40 61 -5 0 -14 2 -22 4 -7 3 -22 1 -34 -4z"/>
<path d="M2047 1260 c-122 -65 -91 -244 44 -263 93 -12 177 79 155 169 -22 88
-122 135 -199 94z"/>
<path d="M585 1162 c-28 -6 -62 -39 -73 -71 -34 -97 74 -183 165 -133 28 16
53 62 53 98 0 31 -37 92 -60 99 -28 8 -65 12 -85 7z"/>
<path d="M862 1139 c-34 -13 -47 -50 -31 -85 18 -37 56 -46 92 -22 59 42 8
132 -61 107z"/>
<path d="M1312 1129 c-29 -11 -46 -53 -31 -80 22 -42 91 -40 105 3 15 50 -27
94 -74 77z"/>
<path d="M200 1109 c-61 -25 -96 -80 -99 -152 -3 -97 63 -169 157 -170 98 -1
163 57 170 154 5 68 -13 108 -67 147 -42 31 -114 40 -161 21z"/>
<path d="M1823 1105 c-70 -30 -63 -132 11 -151 68 -17 120 48 90 112 -20 41
-59 57 -101 39z"/>
<path d="M1028 1054 c-48 -25 -48 -93 0 -118 58 -30 121 29 94 88 -15 33 -61
47 -94 30z"/>
<path d="M1577 980 c-14 -11 -31 -36 -37 -55 -10 -30 -9 -41 7 -72 21 -44 53
-63 104 -63 30 0 43 7 69 37 28 31 31 42 27 76 -8 58 -49 97 -103 97 -26 0
-51 -7 -67 -20z"/>
<path d="M772 977 c-70 -22 -142 -119 -142 -194 0 -150 166 -252 298 -184 129
66 151 243 41 335 -56 48 -130 64 -197 43z"/>
<path d="M1255 974 c-78 -27 -120 -90 -112 -170 9 -88 62 -141 147 -146 58 -3
88 7 126 44 125 118 0 328 -161 272z"/>
<path d="M1834 891 c-78 -35 -134 -136 -121 -217 l6 -37 -34 40 c-69 81 -181
74 -241 -14 -63 -94 9 -227 124 -227 82 0 155 66 155 141 0 12 1 23 4 23 2 0
18 -16 36 -37 39 -45 98 -72 155 -73 154 -1 261 166 193 299 -54 104 -174 149
-277 102z"/>
<path d="M466 865 c-31 -47 22 -103 72 -76 29 16 37 48 18 76 -22 34 -68 34
-90 0z"/>
<path d="M1035 673 c-22 -23 -26 -34 -21 -63 11 -72 93 -95 139 -40 31 37 28
75 -9 108 -34 30 -75 28 -109 -5z"/>
<path d="M1210 561 c-49 -48 -52 -105 -7 -156 46 -54 132 -48 176 13 25 35 26
60 7 106 -19 45 -52 66 -104 66 -35 0 -49 -6 -72 -29z"/>
<path d="M1188 303 c-15 -4 -28 -26 -34 -60 -5 -31 48 -60 87 -48 40 13 41 83
0 104 -20 11 -25 12 -53 4z"/>
</g>
</svg>
